<svg width="27" height="28" viewBox="0 0 27 28" fill="none" xmlns="http://www.w3.org/2000/svg">
<g clip-path="url(#clip0_4_31)">
<path d="M7.4475 12.4373C9.0675 15.6389 11.6775 18.2523 14.8612 19.8927L17.3363 17.4038C17.64 17.0983 18.09 16.9965 18.4838 17.1323C19.7437 17.5508 21.105 17.7771 22.5 17.7771C23.1187 17.7771 23.625 18.2862 23.625 18.9084V22.8567C23.625 23.479 23.1187 23.9881 22.5 23.9881C11.9362 23.9881 3.375 15.3787 3.375 4.75562C3.375 4.13339 3.88125 3.6243 4.5 3.6243H8.4375C9.05625 3.6243 9.5625 4.13339 9.5625 4.75562C9.5625 6.16977 9.7875 7.52735 10.2037 8.79443C10.3275 9.19039 10.2375 9.63161 9.9225 9.94838L7.4475 12.4373Z" fill="#2D81AF"/>
</g>
<defs>
<clipPath id="clip0_4_31">
<rect width="27" height="27.1517" fill="white" transform="translate(0 0.230347)"/>
</clipPath>
</defs>
</svg>
